<svg width="25" height="25" viewBox="0 0 25 25" fill="none" xmlns="http://www.w3.org/2000/svg">
<path d="M12.7539 3.22852C10.8255 3.22852 8.94048 3.80034 7.3371 4.87169C5.73372 5.94303 4.48404 7.46577 3.74609 9.24735C3.00813 11.0289 2.81505 12.9893 3.19125 14.8806C3.56746 16.772 4.49606 18.5092 5.85962 19.8728C7.22318 21.2364 8.96047 22.165 10.8518 22.5412C12.7431 22.9174 14.7035 22.7243 16.4851 21.9863C18.2667 21.2484 19.7894 19.9987 20.8607 18.3953C21.9321 16.7919 22.5039 14.9069 22.5039 12.9785C22.5012 10.3935 21.4731 7.91513 19.6452 6.08724C17.8173 4.25935 15.3389 3.23125 12.7539 3.22852ZM12.7539 21.2285C11.1222 21.2285 9.52716 20.7447 8.17046 19.8381C6.81375 18.9316 5.75633 17.6431 5.1319 16.1357C4.50748 14.6282 4.3441 12.9694 4.66243 11.369C4.98076 9.76868 5.7665 8.29867 6.92028 7.14488C8.07406 5.9911 9.54407 5.20537 11.1444 4.88704C12.7448 4.56871 14.4036 4.73209 15.911 5.35651C17.4185 5.98093 18.707 7.03836 19.6135 8.39506C20.5201 9.75177 21.0039 11.3468 21.0039 12.9785C21.0014 15.1658 20.1314 17.2628 18.5848 18.8094C17.0382 20.356 14.9412 21.226 12.7539 21.2285ZM17.0345 12.4479C17.1043 12.5175 17.1596 12.6003 17.1973 12.6913C17.2351 12.7824 17.2545 12.88 17.2545 12.9785C17.2545 13.0771 17.2351 13.1747 17.1973 13.2657C17.1596 13.3568 17.1043 13.4395 17.0345 13.5091L14.0345 16.5091C13.8938 16.6499 13.7029 16.7289 13.5039 16.7289C13.3049 16.7289 13.114 16.6499 12.9733 16.5091C12.8326 16.3684 12.7535 16.1775 12.7535 15.9785C12.7535 15.7795 12.8326 15.5886 12.9733 15.4479L14.6936 13.7285H9.00391C8.805 13.7285 8.61423 13.6495 8.47358 13.5088C8.33293 13.3682 8.25391 13.1774 8.25391 12.9785C8.25391 12.7796 8.33293 12.5888 8.47358 12.4482C8.61423 12.3075 8.805 12.2285 9.00391 12.2285H14.6936L12.9733 10.5091C12.8326 10.3684 12.7535 10.1775 12.7535 9.97852C12.7535 9.77949 12.8326 9.58862 12.9733 9.44789C13.114 9.30716 13.3049 9.2281 13.5039 9.2281C13.7029 9.2281 13.8938 9.30716 14.0345 9.44789L17.0345 12.4479Z" fill="black"/>
</svg>
