<svg width="25" height="25" viewBox="0 0 25 25" fill="black" xmlns="http://www.w3.org/2000/svg">
<path d="M10.5039 15.2285C10.5039 15.4274 10.4249 15.6182 10.2842 15.7588C10.1436 15.8995 9.95282 15.9785 9.75391 15.9785H6.00391C5.80499 15.9785 5.61423 15.8995 5.47358 15.7588C5.33292 15.6182 5.25391 15.4274 5.25391 15.2285C5.25391 15.0296 5.33292 14.8388 5.47358 14.6982C5.61423 14.5575 5.80499 14.4785 6.00391 14.4785H9.75391C9.95282 14.4785 10.1436 14.5575 10.2842 14.6982C10.4249 14.8388 10.5039 15.0296 10.5039 15.2285ZM23.2539 11.8535V17.4785C23.2539 17.8763 23.0959 18.2579 22.8146 18.5392C22.5333 18.8205 22.1517 18.9785 21.7539 18.9785H13.5039V21.9785C13.5039 22.1774 13.4249 22.3682 13.2842 22.5088C13.1436 22.6495 12.9528 22.7285 12.7539 22.7285C12.555 22.7285 12.3642 22.6495 12.2236 22.5088C12.0829 22.3682 12.0039 22.1774 12.0039 21.9785V18.9785H3.75391C3.35608 18.9785 2.97455 18.8205 2.69325 18.5392C2.41194 18.2579 2.25391 17.8763 2.25391 17.4785V11.8535C2.25564 10.3622 2.84883 8.93247 3.90335 7.87796C4.95786 6.82344 6.3876 6.23025 7.87891 6.22852H15.0039V3.22852C15.0039 3.0296 15.0829 2.83884 15.2236 2.69819C15.3642 2.55753 15.555 2.47852 15.7539 2.47852H18.7539C18.9528 2.47852 19.1436 2.55753 19.2842 2.69819C19.4249 2.83884 19.5039 3.0296 19.5039 3.22852C19.5039 3.42743 19.4249 3.61819 19.2842 3.75885C19.1436 3.8995 18.9528 3.97852 18.7539 3.97852H16.5039V6.22852H17.6289C19.1202 6.23025 20.5499 6.82344 21.6045 7.87796C22.659 8.93247 23.2522 10.3622 23.2539 11.8535ZM12.0039 17.4785V11.8535C12.0039 10.7595 11.5693 9.71029 10.7957 8.9367C10.0221 8.16311 8.97292 7.72852 7.87891 7.72852C6.78489 7.72852 5.73568 8.16311 4.96209 8.9367C4.1885 9.71029 3.75391 10.7595 3.75391 11.8535V17.4785H12.0039ZM21.7539 11.8535C21.7527 10.7599 21.3177 9.71139 20.5444 8.93807C19.771 8.16475 18.7225 7.72976 17.6289 7.72852H16.5039V14.4785C16.5039 14.6774 16.4249 14.8682 16.2842 15.0088C16.1436 15.1495 15.9528 15.2285 15.7539 15.2285C15.555 15.2285 15.3642 15.1495 15.2236 15.0088C15.0829 14.8682 15.0039 14.6774 15.0039 14.4785V7.72852H11.6992C12.2685 8.25423 12.7228 8.89215 13.0334 9.60209C13.344 10.312 13.5042 11.0786 13.5039 11.8535V17.4785H21.7539V11.8535Z" />
</svg>
