<svg width="25" height="25" viewBox="0 0 25 25" fill="none" xmlns="http://www.w3.org/2000/svg">
<path d="M7.45312 14.1514H3.70312C3.50421 14.1514 3.31345 14.0723 3.17279 13.9317C3.03214 13.791 2.95313 13.6003 2.95312 13.4014C2.95312 13.2025 3.03214 13.0117 3.17279 12.871C3.31345 12.7304 3.50421 12.6514 3.70312 12.6514H7.05188L8.32875 10.7351C8.39721 10.6322 8.49003 10.5479 8.59896 10.4895C8.70789 10.4312 8.82955 10.4006 8.95312 10.4006C9.0767 10.4006 9.19836 10.4312 9.30729 10.4895C9.41622 10.5479 9.50904 10.6322 9.5775 10.7351L11.9531 14.2976L12.8287 12.9851C12.8973 12.8824 12.9902 12.7982 13.0991 12.7399C13.208 12.6817 13.3296 12.6513 13.4531 12.6514H15.7031C15.902 12.6514 16.0928 12.7304 16.2335 12.871C16.3741 13.0117 16.4531 13.2025 16.4531 13.4014C16.4531 13.6003 16.3741 13.791 16.2335 13.9317C16.0928 14.0723 15.902 14.1514 15.7031 14.1514H13.8544L12.5775 16.0676C12.509 16.1705 12.4162 16.2549 12.3073 16.3132C12.1984 16.3716 12.0767 16.4021 11.9531 16.4021C11.8296 16.4021 11.7079 16.3716 11.599 16.3132C11.49 16.2549 11.3972 16.1705 11.3287 16.0676L8.95312 12.5032L8.0775 13.8157C8.00917 13.9188 7.9164 14.0034 7.80747 14.062C7.69853 14.1205 7.5768 14.1512 7.45312 14.1514ZM17.3906 4.40137C15.4547 4.40137 13.7597 5.23387 12.7031 6.64105C11.6466 5.23387 9.95156 4.40137 8.01562 4.40137C6.47459 4.4031 4.99716 5.01605 3.90749 6.10573C2.81781 7.19541 2.20486 8.67283 2.20312 10.2139C2.20313 10.2842 2.20312 10.3545 2.20312 10.4248C2.20934 10.6237 2.29432 10.812 2.43937 10.9483C2.58442 11.0845 2.77765 11.1576 2.97656 11.1514C3.17547 11.1452 3.36377 11.0602 3.50003 10.9151C3.63628 10.7701 3.70934 10.5768 3.70312 10.3779C3.70313 10.3236 3.70312 10.2682 3.70312 10.2139C3.70461 9.07058 4.15944 7.97454 4.96787 7.16611C5.7763 6.35768 6.87234 5.90286 8.01562 5.90137C9.83906 5.90137 11.37 6.87262 12.0094 8.43262C12.0659 8.57017 12.162 8.68783 12.2855 8.77063C12.4091 8.85343 12.5544 8.89764 12.7031 8.89764C12.8518 8.89764 12.9972 8.85343 13.1207 8.77063C13.2442 8.68783 13.3404 8.57017 13.3969 8.43262C14.0362 6.8698 15.5672 5.90137 17.3906 5.90137C18.5339 5.90286 19.63 6.35768 20.4384 7.16611C21.2468 7.97454 21.7016 9.07058 21.7031 10.2139C21.7031 15.2398 14.4131 19.7904 12.7031 20.7889C11.6878 20.1973 8.70656 18.3514 6.45187 15.8942C6.38527 15.8215 6.30501 15.7627 6.21568 15.7211C6.12635 15.6795 6.02969 15.6559 5.93123 15.6516C5.83277 15.6473 5.73444 15.6625 5.64184 15.6963C5.54924 15.73 5.4642 15.7816 5.39156 15.8482C5.31892 15.9148 5.26012 15.9951 5.2185 16.0844C5.17688 16.1738 5.15326 16.2704 5.149 16.3689C5.14473 16.4673 5.1599 16.5657 5.19364 16.6583C5.22737 16.7509 5.27902 16.8359 5.34563 16.9086C8.26781 20.0961 12.1828 22.2223 12.3478 22.3114C12.457 22.3701 12.5791 22.4009 12.7031 22.4009C12.8271 22.4009 12.9492 22.3701 13.0584 22.3114C13.4728 22.0882 23.2031 16.7764 23.2031 10.2139C23.2014 8.67283 22.5884 7.19541 21.4988 6.10573C20.4091 5.01605 18.9317 4.4031 17.3906 4.40137Z" fill="black"/>
</svg>
