<svg width="20" height="21" viewBox="0 0 20 21" fill="none" xmlns="http://www.w3.org/2000/svg">
<path d="M10.001 0.863037C8.07261 0.863037 6.18755 1.43486 4.58417 2.50621C2.98079 3.57755 1.73111 5.10029 0.993156 6.88187C0.255201 8.66345 0.0621186 10.6239 0.438324 12.5152C0.81453 14.4065 1.74313 16.1438 3.10669 17.5073C4.47025 18.8709 6.20754 19.7995 8.09885 20.1757C9.99017 20.5519 11.9506 20.3588 13.7321 19.6209C15.5137 18.8829 17.0365 17.6332 18.1078 16.0298C19.1792 14.4265 19.751 12.5414 19.751 10.613C19.7483 8.02801 18.7201 5.54965 16.8923 3.72176C15.0644 1.89387 12.586 0.865767 10.001 0.863037ZM17.1747 14.6837H14.0229L13.1547 13.4874L14.3388 10.0393L15.745 9.58085L18.205 11.468C18.0886 12.5998 17.7378 13.695 17.1747 14.6837ZM1.79973 11.468L4.25504 9.58179L5.66129 10.0402L6.84536 13.4883L5.97911 14.6837H2.82723C2.26356 13.6951 1.91202 12.6 1.79504 11.468H1.79973ZM2.73723 6.72054L3.25379 8.46429L1.81754 9.56022C1.94488 8.56586 2.25375 7.60333 2.72879 6.72054H2.73723ZM8.21973 12.863L7.14536 9.73647L10.001 7.77335L12.8566 9.73647L11.7822 12.863H8.21973ZM16.7575 8.46429L17.2741 6.72054C17.7491 7.60333 18.058 8.56586 18.1854 9.56022L16.7575 8.46429ZM16.1763 5.14741L15.2847 8.15491L13.8719 8.61335L10.751 6.46835V5.00772L13.4782 3.13272C14.5054 3.61309 15.4233 4.29874 16.1754 5.14741H16.1763ZM11.695 2.53835L10.001 3.70272L8.30692 2.53835C9.4242 2.3046 10.5778 2.3046 11.695 2.53835ZM6.52379 3.13272L9.25098 5.00772V6.46835L6.13098 8.61335L4.71817 8.15491L3.82661 5.14741C4.57869 4.29874 5.49661 3.61309 6.52379 3.13272ZM3.92129 16.1837H5.83098L6.50317 18.084C5.52706 17.6246 4.65003 16.9791 3.92129 16.1837ZM8.31348 18.6877L7.19973 15.5546L8.06504 14.363H11.9369L12.8022 15.5546L11.6932 18.6877C10.5772 18.9216 9.4248 18.9216 8.30879 18.6877H8.31348ZM13.5035 18.084L14.1757 16.1837H16.0854C15.3552 16.9796 14.4766 17.6251 13.4988 18.084H13.5035Z" fill="black"/>
</svg>
