<svg width="25" height="25" viewBox="0 0 25 25" fill="none" xmlns="http://www.w3.org/2000/svg">
<path d="M15.7032 4.40137C15.7032 3.80802 15.5272 3.22801 15.1976 2.73466C14.8679 2.24131 14.3994 1.85679 13.8512 1.62973C13.3031 1.40267 12.6999 1.34326 12.1179 1.45901C11.536 1.57477 11.0014 1.86049 10.5819 2.28005C10.1623 2.69961 9.87658 3.23415 9.76083 3.8161C9.64507 4.39804 9.70448 5.00124 9.93154 5.54942C10.1586 6.0976 10.5431 6.56613 11.0365 6.89578C11.5298 7.22542 12.1098 7.40137 12.7032 7.40137C13.4988 7.40137 14.2619 7.0853 14.8245 6.52269C15.3871 5.96008 15.7032 5.19702 15.7032 4.40137ZM12.7032 5.90137C12.4065 5.90137 12.1165 5.8134 11.8698 5.64857C11.6232 5.48375 11.4309 5.24948 11.3174 4.97539C11.2038 4.7013 11.1741 4.3997 11.232 4.10873C11.2899 3.81776 11.4327 3.55049 11.6425 3.34071C11.8523 3.13093 12.1196 2.98807 12.4105 2.93019C12.7015 2.87231 13.0031 2.90202 13.2772 3.01555C13.5513 3.12908 13.7856 3.32134 13.9504 3.56801C14.1152 3.81469 14.2032 4.1047 14.2032 4.40137C14.2032 4.79919 14.0451 5.18072 13.7638 5.46203C13.4825 5.74333 13.101 5.90137 12.7032 5.90137ZM22.4063 8.87418C22.3209 8.45414 22.0915 8.07711 21.7578 7.8082C21.424 7.5393 21.0068 7.3954 20.5782 7.40137H4.82818C4.40076 7.40136 3.98616 7.54738 3.65308 7.81524C3.32001 8.0831 3.08844 8.45672 2.99677 8.8742C2.90509 9.29167 2.9588 9.72794 3.14899 10.1107C3.33919 10.4935 3.65446 10.7998 4.04256 10.9789H4.05475L8.81256 13.0742L6.84381 20.5479C6.63781 21.0017 6.62051 21.5187 6.79571 21.9852C6.97091 22.4518 7.32426 22.8296 7.77803 23.0356C8.2318 23.2416 8.74881 23.2589 9.21534 23.0837C9.68186 22.9085 10.0597 22.5551 10.2657 22.1014L12.7032 17.8948L15.1407 22.1014C15.3573 22.5358 15.734 22.8693 16.1914 23.0317C16.6489 23.1941 17.1515 23.1727 17.5936 22.9721C18.0356 22.7715 18.3826 22.4072 18.5616 21.956C18.7406 21.5048 18.7375 21.0017 18.5532 20.5526L16.5844 13.0789L21.3422 10.9836H21.3544C21.7488 10.8105 22.07 10.5046 22.2621 10.1192C22.4543 9.73385 22.5053 9.29329 22.4063 8.87418ZM20.7376 9.61481L15.4004 11.9642C15.237 12.0362 15.1046 12.1641 15.0271 12.325C14.9496 12.4858 14.932 12.669 14.9776 12.8417L17.1216 20.9951C17.1326 21.0388 17.1479 21.0812 17.1676 21.1217C17.199 21.189 17.2098 21.2641 17.1985 21.3375C17.1872 21.4109 17.1544 21.4793 17.1042 21.534C17.054 21.5888 16.9886 21.6274 16.9165 21.6449C16.8443 21.6625 16.7685 21.6582 16.6988 21.6326C16.6056 21.5984 16.5297 21.5286 16.4879 21.4386C16.4784 21.4183 16.4677 21.3986 16.456 21.3795L13.3519 16.0264C13.286 15.9127 13.1914 15.8184 13.0775 15.7528C12.9637 15.6872 12.8346 15.6527 12.7032 15.6527C12.5718 15.6527 12.4427 15.6872 12.3288 15.7528C12.215 15.8184 12.1204 15.9127 12.0544 16.0264L8.95318 21.3748C8.94145 21.3939 8.93081 21.4136 8.92131 21.4339C8.87947 21.5239 8.80361 21.5937 8.71037 21.6279C8.64063 21.6535 8.56488 21.6578 8.49271 21.6402C8.42054 21.6227 8.3552 21.5841 8.30499 21.5293C8.25478 21.4746 8.22195 21.4062 8.21067 21.3328C8.19939 21.2594 8.21016 21.1843 8.24162 21.117C8.26123 21.0765 8.27663 21.0341 8.28756 20.9904L10.4288 12.8389C10.4743 12.6662 10.4567 12.483 10.3792 12.3221C10.3017 12.1613 10.1694 12.0334 10.006 11.9614L4.66881 9.61481C4.5922 9.57825 4.53025 9.51678 4.49311 9.44045C4.45597 9.36412 4.44582 9.27745 4.46433 9.19461C4.48283 9.11176 4.5289 9.03765 4.59499 8.98438C4.66109 8.93111 4.7433 8.90185 4.82818 8.90137H20.5782C20.6633 8.90121 20.746 8.93003 20.8125 8.98307C20.8791 9.03611 20.9257 9.11023 20.9445 9.19324C20.9634 9.27625 20.9535 9.36321 20.9164 9.43982C20.8793 9.51643 20.8172 9.57814 20.7404 9.61481H20.7376Z" />
</svg>
