<svg width="20" height="19" viewBox="0 0 20 19" fill="none" xmlns="http://www.w3.org/2000/svg">
<path d="M18.6011 12.8342L14.1845 10.8551L14.1724 10.8495C13.9431 10.7514 13.693 10.7121 13.4446 10.735C13.1963 10.7579 12.9576 10.8424 12.7502 10.9808C12.7257 10.9969 12.7023 11.0144 12.6799 11.0333L10.398 12.9786C8.95235 12.2764 7.45985 10.7951 6.75766 9.36826L8.70579 7.0517C8.72454 7.02826 8.74235 7.00482 8.75923 6.97951C8.89463 6.7726 8.97678 6.53543 8.99837 6.28911C9.01996 6.04278 8.98032 5.79494 8.88298 5.56763V5.55638L6.89829 1.13232C6.76961 0.835381 6.54834 0.588022 6.26753 0.427169C5.98671 0.266316 5.6614 0.200596 5.34016 0.23982C4.06982 0.406983 2.90377 1.03085 2.05979 1.99491C1.21581 2.95897 0.751618 4.19728 0.753915 5.47857C0.753915 12.9223 6.81016 18.9786 14.2539 18.9786C15.5352 18.9809 16.7735 18.5167 17.7376 17.6727C18.7016 16.8287 19.3255 15.6627 19.4927 14.3923C19.532 14.0712 19.4664 13.746 19.3057 13.4652C19.145 13.1844 18.8979 12.963 18.6011 12.8342ZM14.2539 17.4786C11.0724 17.4751 8.02215 16.2097 5.77247 13.96C3.52279 11.7103 2.25739 8.6601 2.25391 5.47857C2.25039 4.56309 2.58021 3.67763 3.18179 2.98754C3.78337 2.29746 4.61557 1.84994 5.52298 1.72857C5.52261 1.73231 5.52261 1.73608 5.52298 1.73982L7.49173 6.14607L5.55391 8.46545C5.53425 8.48808 5.51638 8.51221 5.50048 8.53763C5.3594 8.75412 5.27663 9.00338 5.26021 9.26125C5.24378 9.51913 5.29425 9.77687 5.40673 10.0095C6.2561 11.7467 8.00641 13.4839 9.76235 14.3323C9.99669 14.4437 10.2559 14.4925 10.5147 14.4737C10.7735 14.455 11.0231 14.3695 11.2389 14.2254C11.263 14.2092 11.2861 14.1917 11.3083 14.1729L13.5874 12.2286L17.9936 14.202C17.9936 14.202 18.0011 14.202 18.0039 14.202C17.884 15.1107 17.4372 15.9446 16.747 16.5476C16.0568 17.1507 15.1705 17.4817 14.2539 17.4786Z" />
</svg>
